# xmcd
#
# Track frame offsets:
#	150
#	17016
#	32625
#	50163
#	69565
#	85299
#	102294
#	118673
#	133179
#	151128
#	163275
#	179162
#	195697
#	207725
#	224965
#	242810
#	259296
#	274794
#	291596
#	313118
#
# Disc length: 4375 seconds
#
# Revision: 1
# Processed by: cddbd v1.5.2PL0 Copyright (c) Steve Scherf et al.
# Submitted via: EZCDAudioConverter 7.0.0.1
#
DISCID=4e111514
DTITLE=Dazadi Izpilditaji - Vislabākā Latviešu Šlāgermūzikas Izlase
DYEAR=2014
DGENRE=Country
TTITLE0=APVEDCEĻŠ - Zemenes
TTITLE1=KAIMIŅI - Ievai
TTITLE2=KLAIDONIS - Mazā Dvēselīte
TTITLE3=ROJA - Kamenes Deja
TTITLE4=DAKOTA - Vakariņas 5-atā
TTITLE5=KLAIDONIS - Vecais Skroderis
TTITLE6=SESTĀ JŪDZE - Rabarberu Vīns
TTITLE7=JĀTNIEKI - Balle Baložos
TTITLE8=LAUKU MUZIKANTI - Mana Dzīve
TTITLE9=LUSTĪGAIS BLŪMĪZERS - Saules Pusē
TTITLE10=IRĒNA ANCĀNE - Par Vienu Dienu Tuvāk Tev
TTITLE11=TĀLBRAUCĒJI - Diena no Dienas
TTITLE12=BET BET - Džambulaja
TTITLE13=LABVĒLĪGAIS TIPS - Mans Brālis Čikāgā
TTITLE14=DĀLDERI - Neskaties Mēnesī
TTITLE15=JUKE BOX - Nevajag Raudāt
TTITLE16=EVIJA SLOKA - Visu vai Neko
TTITLE17=LIENE ŠOMASE - Klauns
TTITLE18=GUNĀRS MEIJERS - Meitene
TTITLE19=NORMUNDS RUTULIS and MARIJA NAUMOVA - Lakstīgala
EXTD=
EXTT0=
EXTT1=
EXTT2=
EXTT3=
EXTT4=
EXTT5=
EXTT6=
EXTT7=
EXTT8=
EXTT9=
EXTT10=
EXTT11=
EXTT12=
EXTT13=
EXTT14=
EXTT15=
EXTT16=
EXTT17=
EXTT18=
EXTT19=
PLAYORDER=
